<?xml version="1.0" encoding="UTF-8" standalone="no"?>
<!-- Created with Inkscape (http://www.inkscape.org/) -->

<svg
   xmlns:dc="http://purl.org/dc/elements/1.1/"
   xmlns:cc="http://creativecommons.org/ns#"
   xmlns:rdf="http://www.w3.org/1999/02/22-rdf-syntax-ns#"
   xmlns:svg="http://www.w3.org/2000/svg"
   xmlns="http://www.w3.org/2000/svg"
   xmlns:xlink="http://www.w3.org/1999/xlink"
   xmlns:sodipodi="http://sodipodi.sourceforge.net/DTD/sodipodi-0.dtd"
   xmlns:inkscape="http://www.inkscape.org/namespaces/inkscape"
   width="1366"
   height="768"
   id="svg2"
   version="1.1"
   inkscape:version="0.48.5 r10040"
   sodipodi:docname="New document 1">
  <defs
     id="defs4">
    <linearGradient
       y2="-969.966"
       x2="369.33105"
       y1="-418.37231"
       x1="352.13528"
       gradientTransform="matrix(1.0751264,0,0,1.0144728,9.075e-5,226.3803)"
       gradientUnits="userSpaceOnUse"
       id="linearGradient8521"
       xlink:href="#linearGradient6163"
       inkscape:collect="always" />
    <linearGradient
       id="linearGradient6163">
      <stop
         style="stop-color:#3c0b00;stop-opacity:1;"
         offset="0"
         id="stop6165" />
      <stop
         style="stop-color:#9f1d00;stop-opacity:1"
         offset="1"
         id="stop6167" />
    </linearGradient>
  </defs>
  <sodipodi:namedview
     id="base"
     pagecolor="#ffffff"
     bordercolor="#666666"
     borderopacity="1.0"
     inkscape:pageopacity="0.0"
     inkscape:pageshadow="2"
     inkscape:zoom="0.5"
     inkscape:cx="638.18769"
     inkscape:cy="299.11903"
     inkscape:document-units="px"
     inkscape:current-layer="layer1"
     showgrid="false"
     showguides="true"
     inkscape:guide-bbox="true"
     inkscape:object-paths="true"
     inkscape:showpageshadow="false"
     inkscape:window-width="1296"
     inkscape:window-height="745"
     inkscape:window-x="-8"
     inkscape:window-y="-8"
     inkscape:window-maximized="1">
    <sodipodi:guide
       orientation="1,0"
       position="0,500.59375"
       id="guide2985" />
    <sodipodi:guide
       orientation="1,0"
       position="1366,659.14844"
       id="guide2987" />
    <sodipodi:guide
       orientation="0,1"
       position="1324.5,768"
       id="guide2989" />
    <sodipodi:guide
       orientation="0,1"
       position="1265.0313,0"
       id="guide2991" />
  </sodipodi:namedview>
  <metadata
     id="metadata7">
    <rdf:RDF>
      <cc:Work
         rdf:about="">
        <dc:format>image/svg+xml</dc:format>
        <dc:type
           rdf:resource="http://purl.org/dc/dcmitype/StillImage" />
        <dc:title></dc:title>
      </cc:Work>
    </rdf:RDF>
  </metadata>
  <g
     inkscape:label="Layer 1"
     inkscape:groupmode="layer"
     id="layer1"
     transform="translate(0,-284.36217)">
    <rect
       style="fill:#000000;fill-opacity:1;stroke:none"
       id="rect4036"
       width="1366"
       height="768"
       x="0"
       y="0"
       transform="translate(0,284.36217)" />
    <path
       style="opacity:0.49519234;fill:#000080;fill-opacity:1;stroke:none"
       d="m 0,598.36217 0,454.00003 464,0 0,-454.00003 -464,0 z"
       id="rect7401"
       inkscape:connector-curvature="0" />
    <rect
       y="284.36218"
       x="0"
       height="314"
       width="1366"
       id="rect7384"
       style="fill:#800000;fill-opacity:1;stroke:none;opacity:0.49519231" />
    <rect
       inkscape:export-ydpi="93.528542"
       inkscape:export-xdpi="93.528542"
       inkscape:export-filename="C:\Users\sayed\Desktop\L\domino\d2.png"
       style="fill:#008738;fill-opacity:1;stroke:none"
       id="rect4963"
       width="211.31371"
       height="211.31371"
       x="578.76996"
       y="476.47119"
       ry="103.33282"
       rx="105.65685" />
    <path
       inkscape:export-ydpi="93.528542"
       inkscape:export-xdpi="93.528542"
       inkscape:export-filename="C:\Users\sayed\Desktop\L\domino\d2.png"
       inkscape:connector-curvature="0"
       style="fill:#800000;fill-opacity:1;stroke:none"
       d="m -113.98347,494.85086 c -6.5333,4.67582 -10.81794,12.40485 -10.81794,21.23106 l 0,13.36349 c 3.58529,1.54953 7.51874,2.42966 11.68579,2.42966 l 28.23101,0 c 3.770802,0 7.337171,-0.74294 10.64448,-2.02473 l 0,-13.76842 c 0,-8.82621 -4.284645,-16.55524 -10.818051,-21.23106 -4.131798,2.7849 -9.104869,4.3966 -14.462701,4.3966 -5.357608,0 -10.330678,-1.6117 -14.462588,-4.3966 z"
       id="path4965" />
    <path
       inkscape:export-ydpi="93.528542"
       inkscape:export-xdpi="93.528542"
       inkscape:export-filename="C:\Users\sayed\Desktop\L\domino\d2.png"
       sodipodi:type="arc"
       style="fill:#800000;fill-opacity:1;stroke:none"
       id="path4967"
       sodipodi:cx="-133"
       sodipodi:cy="299"
       sodipodi:rx="40"
       sodipodi:ry="40"
       d="m -93,299 a 40,40 0 1 1 -80,0 40,40 0 1 1 80,0 z"
       transform="matrix(0.64792496,0,0,0.64792496,-13.335108,273.12165)" />
    <rect
       inkscape:export-ydpi="93.528542"
       inkscape:export-xdpi="93.528542"
       inkscape:export-filename="C:\Users\sayed\Desktop\L\domino\d2.png"
       transform="matrix(0.96592583,-0.25881904,0.25881904,0.96592583,0,0)"
       ry="1.7355133"
       y="418.01804"
       x="-212.03604"
       height="3.4710267"
       width="16.660929"
       id="rect4977"
       style="fill:#800000;fill-opacity:1;stroke:none" />
    <rect
       inkscape:export-ydpi="93.528542"
       inkscape:export-xdpi="93.528542"
       inkscape:export-filename="C:\Users\sayed\Desktop\L\domino\d2.png"
       style="fill:#800000;fill-opacity:1;stroke:none"
       id="rect4979"
       width="16.660929"
       height="3.4710267"
       x="-20.78248"
       y="469.26431"
       ry="1.7355133"
       transform="matrix(-0.96592583,-0.25881904,-0.25881904,0.96592583,0,0)" />
    <g
       style="fill:#800000;fill-opacity:1"
       inkscape:export-ydpi="93.528542"
       inkscape:export-xdpi="93.528542"
       inkscape:export-filename="C:\Users\sayed\Desktop\L\domino\d2.png"
       transform="matrix(1.9166816,0,0,2.069439,-2203.497,-937.01271)"
       id="g4981">
      <g
         style="fill:#800000;fill-opacity:1"
         id="g4983"
         transform="matrix(0.90026132,0,0,0.90026132,109.90711,69.404367)">
        <path
           inkscape:connector-curvature="0"
           id="path4986"
           d="m 1108.25,705.88827 0,-8.51802 c 3.8945,-0.18131 7.0177,-5.11497 7.0177,-11.1945 0,-0.11475 -0.012,-0.22597 -0.014,-0.33988 l 5.4963,0 c 0,0.1141 0,0.22531 0,0.33988 0,10.77357 -5.5764,19.53137 -12.5002,19.71252 z"
           style="fill:#800000;fill-opacity:1;stroke:none" />
        <path
           style="fill:#800000;fill-opacity:1;stroke:none"
           d="m 1086.2498,705.88827 0,-8.51802 c -3.8945,-0.18131 -7.0177,-5.11497 -7.0177,-11.1945 0,-0.11475 0.012,-0.22597 0.014,-0.33988 l -5.4963,0 c 0,0.1141 0,0.22531 0,0.33988 0,10.77357 5.5764,19.53137 12.5002,19.71252 z"
           id="path4988"
           inkscape:connector-curvature="0" />
      </g>
      <path
         sodipodi:type="arc"
         style="fill:#800000;fill-opacity:1;stroke:none"
         id="path4990"
         sodipodi:cx="1116.125"
         sodipodi:cy="129"
         sodipodi:rx="3.625"
         sodipodi:ry="3.625"
         d="m 1119.75,129 c 0,2.00203 -1.623,3.625 -3.625,3.625 -2.002,0 -3.625,-1.62297 -3.625,-3.625 0,-2.00203 1.623,-3.625 3.625,-3.625 2.002,0 3.625,1.62297 3.625,3.625 z"
         transform="matrix(0.6952126,0,0,0.6952126,340.44602,596.80617)" />
      <path
         transform="matrix(0.6952126,0,0,0.6952126,303.07102,596.80617)"
         d="m 1119.75,129 c 0,2.00203 -1.623,3.625 -3.625,3.625 -2.002,0 -3.625,-1.62297 -3.625,-3.625 0,-2.00203 1.623,-3.625 3.625,-3.625 2.002,0 3.625,1.62297 3.625,3.625 z"
         sodipodi:ry="3.625"
         sodipodi:rx="3.625"
         sodipodi:cy="129"
         sodipodi:cx="1116.125"
         id="path4992"
         style="fill:#800000;fill-opacity:1;stroke:none"
         sodipodi:type="arc" />
    </g>
    <path
       inkscape:export-ydpi="93.528542"
       inkscape:export-xdpi="93.528542"
       inkscape:export-filename="C:\Users\sayed\Desktop\L\domino\d2.png"
       transform="matrix(1.8512142,0,0,1.8512142,-2131.6334,234.84321)"
       d="m 1106.25,123.875 a 2.75,1.375 0 1 1 -5.5,0 2.75,1.375 0 1 1 5.5,0 z"
       sodipodi:ry="1.375"
       sodipodi:rx="2.75"
       sodipodi:cy="123.875"
       sodipodi:cx="1103.5"
       id="path4994"
       style="fill:#800000;fill-opacity:1;stroke:none"
       sodipodi:type="arc" />
    <path
       inkscape:export-ydpi="93.528542"
       inkscape:export-xdpi="93.528542"
       inkscape:export-filename="C:\Users\sayed\Desktop\L\domino\d2.png"
       sodipodi:type="arc"
       style="fill:#800000;fill-opacity:1;stroke:none"
       id="path4996"
       sodipodi:cx="1103.5"
       sodipodi:cy="123.875"
       sodipodi:rx="2.75"
       sodipodi:ry="1.375"
       d="m 1106.25,123.875 a 2.75,1.375 0 1 1 -5.5,0 2.75,1.375 0 1 1 5.5,0 z"
       transform="matrix(1.8512142,0,0,1.8512142,-2152.6909,234.84318)" />
    <path
       inkscape:export-ydpi="93.528542"
       inkscape:export-xdpi="93.528542"
       inkscape:export-filename="C:\Users\sayed\Desktop\L\domino\d2.png"
       id="path4998"
       d="m -91.826657,475.1817 -14.925403,3.99168 c -0.0293,0.29026 -0.11478,0.56937 -0.11478,0.86774 0,4.60082 3.72969,8.33051 8.330502,8.33051 4.600811,0 8.330389,-3.72969 8.330389,-8.33051 0,-1.81511 -0.634362,-3.49101 -1.619807,-4.85942 z"
       style="fill:#800000;fill-opacity:1;stroke:none"
       inkscape:connector-curvature="0" />
    <path
       inkscape:export-ydpi="93.528542"
       inkscape:export-xdpi="93.528542"
       inkscape:export-filename="C:\Users\sayed\Desktop\L\domino\d2.png"
       id="path5000"
       d="m -97.148897,480.04112 c -3.586193,0 -6.524733,2.82354 -6.710583,6.36356 1.44466,1.20429 3.29436,1.96695 5.322241,1.96695 3.243782,0 6.029026,-1.86389 7.404865,-4.57029 -1.093913,-2.22151 -3.372974,-3.76022 -6.016523,-3.76022 z"
       style="fill:#800000;fill-opacity:1;stroke:none"
       inkscape:connector-curvature="0" />
    <path
       inkscape:connector-curvature="0"
       id="path7407"
       d="m 902,598.36217 0,454.00003 464,0 0,-454.00003 -464,0 z"
       style="opacity:0.49519234;fill:#000080;fill-opacity:1;stroke:none" />
    <rect
       style="opacity:0.49519234;fill:#400040;fill-opacity:0.72352941;stroke:none"
       id="rect7409"
       width="354"
       height="94"
       x="-442"
       y="376"
       transform="translate(0,284.36217)"
       rx="38"
       ry="38" />
  </g>
</svg>
